<?xml version="1.0" encoding="utf-8"?>
<!-- Generator: Adobe Illustrator 15.1.0, SVG Export Plug-In . SVG Version: 6.00 Build 0)  -->
<!DOCTYPE svg PUBLIC "-//W3C//DTD SVG 1.1//EN" "http://www.w3.org/Graphics/SVG/1.1/DTD/svg11.dtd">
<svg version="1.1" id="レイヤー_1" xmlns="http://www.w3.org/2000/svg" xmlns:xlink="http://www.w3.org/1999/xlink" x="0px"
	 y="0px" width="147.405px" height="138.179px" viewBox="0 0 147.405 138.179" enable-background="new 0 0 147.405 138.179"
	 xml:space="preserve">
<g>
	<g>
		<path d="M140.443,134.816c-1.157,0-2.303-0.417-3.203-1.215c-5.915-5.239-17.411-8.493-29.999-8.493
			c-12.589,0-24.082,3.254-29.998,8.493c-1.829,1.619-4.578,1.62-6.406,0c-5.825-5.16-17.601-8.493-29.998-8.493
			c-12.398,0-24.173,3.333-29.999,8.493c-1.423,1.259-3.454,1.569-5.186,0.787c-1.734-0.778-2.849-2.502-2.849-4.404V18.046
			c0-1.382,0.593-2.699,1.628-3.616C12.156,7.591,25.765,3.508,40.838,3.508c13.167,0,25.217,3.116,33.202,8.462
			c7.984-5.347,20.034-8.462,33.201-8.462c15.072,0,28.681,4.083,36.404,10.921c1.034,0.917,1.628,2.234,1.628,3.617v111.938
			c0,1.902-1.114,3.626-2.848,4.404C141.79,134.675,141.114,134.816,140.443,134.816z M40.838,115.446
			c13.167,0,25.217,3.116,33.202,8.464c7.984-5.348,20.034-8.464,33.201-8.464c10.73,0,20.72,2.069,28.371,5.73V20.37
			c-6.251-4.476-16.854-7.201-28.371-7.201c-12.589,0-24.083,3.255-29.998,8.494c-1.829,1.619-4.578,1.62-6.406,0
			c-5.825-5.16-17.601-8.494-29.998-8.494c-11.334,0-22.148,2.786-28.371,7.207v100.8C20.118,117.515,30.108,115.446,40.838,115.446
			z"/>
		<g>
			<path d="M119.407,80.792c0-4.941-2.033-9.404-5.298-12.603c3.259-3.195,5.289-7.649,5.296-12.571h0.002v-5.607
				c0-9.744-7.903-17.646-17.643-17.646H89.162v59.702h-0.003c0,2.785-2.255,5.043-5.037,5.043c-2.75,0-4.972-2.194-5.036-4.924
				V53.16H69.002v38.907h-0.004c0,2.785-2.25,5.043-5.04,5.043c-2.782,0-5.04-2.258-5.04-5.043V47.49
				c0-8.354-6.774-15.125-15.121-15.125c-8.352,0-15.125,6.771-15.125,15.125v54.218c3.193-0.539,6.574-0.869,10.083-0.964V73.228
				h10.08v18.839c0,8.355,6.774,15.126,15.123,15.126c3.878,0,7.405-1.475,10.082-3.876c2.677,2.401,6.202,3.876,10.082,3.876
				c8.304,0,15.043-6.7,15.115-14.993h0.007V73.228h2.521c4.177,0,7.559,3.389,7.559,7.564v19.949
				c3.508,0.094,6.892,0.423,10.084,0.962V80.792z M48.835,63.146h-10.08V47.49c0-2.785,2.251-5.044,5.042-5.044
				c2.781,0,5.038,2.259,5.038,5.044V63.146z M109.323,55.589c0,4.175-3.382,7.557-7.559,7.557h-2.521V42.448h2.521
				c4.177,0,7.559,3.388,7.559,7.563V55.589z"/>
		</g>
		<circle fill="#E60012" cx="74.039" cy="39.533" r="7.168"/>
	</g>
</g>
</svg>
